<?xml version="1.0" standalone="no"?>
<!DOCTYPE svg PUBLIC "-//W3C//DTD SVG 20010904//EN"
 "http://www.w3.org/TR/2001/REC-SVG-20010904/DTD/svg10.dtd">
<svg version="1.0" xmlns="http://www.w3.org/2000/svg"
 width="256.000000pt" height="256.000000pt" viewBox="0 0 256.000000 256.000000"
 preserveAspectRatio="xMidYMid meet">
<metadata>
Created by potrace 1.16, written by Peter Selinger 2001-2019
</metadata>
<g transform="translate(0.000000,256.000000) scale(0.100000,-0.100000)"
fill="#000000" stroke="none">
<path d="M0 1280 l0 -1280 1280 0 1280 0 0 1280 0 1280 -1280 0 -1280 0 0
-1280z m406 806 c3 -8 7 -20 8 -28 2 -7 8 -26 15 -41 6 -16 9 -33 5 -38 -3 -5
0 -9 5 -9 6 0 11 -9 11 -20 0 -11 -7 -20 -15 -20 -9 0 -15 9 -15 25 0 14 -4
25 -9 25 -11 0 -21 -50 -21 -106 0 -35 -5 -46 -27 -64 -64 -48 -82 -64 -78
-70 2 -3 -10 -7 -26 -8 -18 -1 -29 2 -29 10 0 13 94 88 110 88 5 0 12 10 15
23 4 20 25 215 25 238 0 14 20 10 26 -5z m200 -191 c-10 -8 -23 -12 -29 -8 -5
3 -14 -1 -19 -8 -7 -11 -8 -9 -4 5 5 15 2 17 -14 13 -24 -6 -27 8 -3 18 10 3
19 1 21 -4 2 -7 11 -5 25 4 29 20 51 0 23 -20z m-146 16 c0 -5 3 -16 6 -25 4
-12 0 -16 -15 -16 -16 0 -21 6 -21 25 0 16 6 25 15 25 8 0 15 -4 15 -9z m80
-55 c0 -11 -19 -15 -25 -6 -3 5 1 10 9 10 9 0 16 -2 16 -4z m-50 -41 c-7 -8
-20 -15 -29 -15 -13 1 -13 3 3 15 26 19 42 19 26 0z m655 -60 l51 -55 99 0
c55 0 120 -1 145 -2 44 -3 45 -2 79 50 35 53 70 74 99 56 7 -5 29 -58 47 -117
21 -70 41 -118 58 -135 46 -49 65 -197 32 -249 -8 -13 -22 -34 -31 -47 -15
-23 -14 -25 30 -57 27 -18 54 -50 66 -74 39 -80 20 -227 -38 -292 -15 -17 -38
-45 -52 -62 -15 -19 -38 -33 -57 -37 -18 -3 -33 -10 -33 -16 0 -5 -4 -6 -10
-3 -5 3 -10 0 -11 -7 -4 -103 -12 -119 -72 -151 -44 -24 -64 -29 -124 -28 -63
0 -78 5 -125 33 -65 41 -71 42 -108 23 -39 -20 -143 -19 -200 2 -45 17 -95 49
-95 61 -1 4 -10 23 -20 42 -16 29 -19 54 -18 146 1 103 23 245 45 286 15 30
-1 65 -32 72 -43 8 -72 45 -65 82 4 25 1 33 -20 44 -13 7 -22 17 -19 22 12 19
-7 6 -35 -24 -17 -18 -31 -28 -31 -21 0 6 5 15 10 18 6 4 8 11 4 16 -3 6 -11
3 -18 -7 -12 -16 -14 -15 -20 10 -4 16 -11 24 -18 20 -20 -13 0 55 27 91 15
18 40 38 57 44 40 14 41 14 35 -3 -4 -10 -1 -13 9 -9 20 7 18 -14 -3 -27 -15
-9 -12 -10 14 -6 20 3 35 0 43 -9 10 -12 9 -15 -6 -15 -12 0 -4 -8 20 -21 21
-11 40 -18 43 -16 2 3 -5 8 -16 12 -12 3 -21 11 -21 18 0 8 3 8 12 -1 20 -20
28 -14 28 21 0 46 22 114 51 162 14 22 34 72 44 110 25 97 30 105 67 105 26 0
42 -11 83 -55z m-715 -233 c-6 -48 -10 -106 -10 -129 0 -24 -5 -44 -12 -49 -7
-4 -10 -4 -6 1 4 4 4 13 -1 19 -15 19 -23 86 -10 86 8 0 8 4 1 13 -9 11 -16
46 -13 74 1 7 7 10 15 7 10 -4 15 1 14 13 -1 22 10 106 20 153 12 61 14 -89 2
-188z m-46 72 c8 -21 8 -24 -3 -24 -5 0 -11 9 -14 20 -6 24 8 27 17 4z m271
-263 c3 -5 1 -12 -5 -16 -5 -3 -10 1 -10 9 0 18 6 21 15 7z m1611 -652 c8 -6
14 -29 14 -53 0 -37 -7 -71 -40 -197 -13 -48 -55 -89 -92 -89 -32 0 -43 18
-34 55 8 32 32 42 59 26 16 -10 21 -10 28 0 10 17 33 109 28 113 -2 2 -44 5
-94 7 l-90 4 -24 -53 c-18 -37 -32 -54 -49 -59 -51 -12 -81 40 -46 79 14 15
26 18 51 13 26 -5 33 -2 34 10 4 46 55 144 81 154 31 12 156 5 174 -10z"/>
<path d="M1204 1427 c-7 -20 -2 -47 11 -50 14 -3 19 43 6 56 -7 7 -12 6 -17
-6z"/>
<path d="M740 1410 c-8 -5 -12 -12 -9 -15 4 -3 12 1 19 10 14 17 11 19 -10 5z"/>
<path d="M1432 1395 c2 -14 8 -26 13 -26 6 0 11 12 13 26 2 18 -1 25 -13 25
-12 0 -15 -7 -13 -25z"/>
<path d="M690 1380 c0 -5 5 -10 11 -10 5 0 7 5 4 10 -3 6 -8 10 -11 10 -2 0
-4 -4 -4 -10z"/>
<path d="M1261 1211 c-10 -6 4 -17 50 -40 35 -17 69 -31 76 -31 6 0 13 -4 15
-10 2 -5 22 -12 45 -16 l42 -6 -2 47 c-2 43 -4 46 -24 41 -13 -3 -34 -9 -47
-12 -17 -4 -35 1 -55 15 -30 22 -76 27 -100 12z"/>
<path d="M1225 1170 c3 -5 14 -10 23 -10 15 0 15 2 2 10 -20 13 -33 13 -25 0z"/>
<path d="M1276 1146 c5 -14 106 -67 113 -60 9 9 -24 34 -45 34 -13 0 -24 4
-24 8 0 5 -11 14 -25 20 -19 9 -23 8 -19 -2z"/>
<path d="M1720 1145 c-6 -7 -13 -22 -14 -32 -2 -10 -18 -28 -36 -40 -25 -18
-41 -21 -70 -17 -30 5 -37 3 -37 -11 0 -15 44 -41 54 -31 3 2 -5 7 -16 11 -12
3 -21 10 -21 14 0 4 24 0 53 -10 55 -19 58 -26 26 -71 -11 -15 -17 -28 -12
-28 4 0 1 -6 -7 -13 -9 -7 -29 -29 -44 -49 -29 -38 -56 -50 -56 -24 0 7 -12
22 -27 31 -22 15 -32 16 -58 6 -68 -24 -105 -4 -112 61 -5 46 -4 45 -108 107
-22 13 -52 32 -67 42 -14 11 -28 19 -31 19 -13 0 -13 -118 0 -152 16 -40 30
-47 118 -55 78 -7 93 -16 115 -67 38 -89 117 -114 235 -73 61 21 76 31 113 78
78 97 75 89 73 163 -1 57 -6 78 -29 124 -19 36 -24 38 -42 17z"/>
<path d="M1237 1069 c7 -7 15 -10 18 -7 3 3 -2 9 -12 12 -14 6 -15 5 -6 -5z"/>
<path d="M1310 1025 c33 -19 50 -18 26 0 -11 8 -27 15 -35 15 -10 -1 -7 -6 9
-15z"/>
<path d="M1555 990 c3 -5 13 -10 21 -10 8 0 14 5 14 10 0 6 -9 10 -21 10 -11
0 -17 -4 -14 -10z"/>
<path d="M1530 962 c0 -13 23 -32 39 -32 11 0 10 4 -4 20 -19 21 -35 26 -35
12z"/>
<path d="M1510 911 c0 -5 7 -12 16 -15 24 -9 28 -7 14 9 -14 17 -30 20 -30 6z"/>
<path d="M2085 630 c-9 -17 -13 -35 -9 -41 3 -6 34 -9 68 -8 35 1 68 -1 75 -5
18 -11 24 -2 25 41 l1 38 -72 3 c-71 3 -72 3 -88 -28z"/>
<path d="M1950 485 c0 -8 6 -15 14 -15 22 0 28 17 10 24 -22 9 -24 8 -24 -9z"/>
<path d="M2150 395 c-7 -9 -8 -15 -2 -15 5 0 12 7 16 15 3 8 4 15 2 15 -2 0
-9 -7 -16 -15z"/>
</g>
</svg>
