<?xml version="1.0" standalone="no"?>
<!DOCTYPE svg PUBLIC "-//W3C//DTD SVG 20010904//EN"
 "http://www.w3.org/TR/2001/REC-SVG-20010904/DTD/svg10.dtd">
<svg version="1.0" xmlns="http://www.w3.org/2000/svg"
 width="256.000000pt" height="256.000000pt" viewBox="0 0 256.000000 256.000000"
 preserveAspectRatio="xMidYMid meet">
<metadata>
Created by potrace 1.16, written by Peter Selinger 2001-2019
</metadata>
<g transform="translate(0.000000,256.000000) scale(0.100000,-0.100000)"
fill="#000000" stroke="none">
<path d="M1125 2033 c-139 -29 -296 -111 -366 -191 -55 -62 -120 -170 -169
-281 -40 -88 -55 -111 -89 -136 -70 -51 -144 -176 -177 -299 -22 -81 -18 -121
14 -157 l29 -32 -34 -106 c-68 -207 -119 -485 -130 -703 -6 -126 -6 -128 15
-128 20 0 22 5 22 53 0 149 46 449 100 652 34 130 78 242 153 391 150 298 400
585 539 619 41 10 49 -17 49 -160 -1 -68 2 -131 5 -140 11 -27 59 -45 161 -60
178 -27 170 -29 285 80 110 105 257 208 317 225 46 12 86 0 95 -28 7 -20 46
-277 46 -300 0 -7 -12 -17 -27 -23 -38 -14 -81 -56 -106 -104 -29 -55 -36
-239 -13 -338 29 -126 70 -176 155 -196 24 -5 45 -11 47 -14 3 -2 25 -83 50
-178 71 -274 143 -479 168 -479 24 0 104 50 131 81 48 57 28 175 -38 223 -21
15 -49 22 -105 26 l-76 5 -37 145 c-20 80 -39 157 -43 172 -5 23 1 34 38 71
61 59 80 126 81 272 0 125 -11 170 -57 239 -28 43 -32 59 -39 150 -8 113 -36
216 -81 293 -95 169 -319 313 -556 359 -94 18 -267 17 -357 -3z m381 -48 c94
-18 174 -50 271 -111 128 -79 226 -196 267 -317 22 -67 42 -235 29 -248 -19
-19 -41 18 -48 78 -4 32 -15 107 -25 167 -22 133 -36 151 -113 151 -90 0 -221
-82 -389 -244 l-88 -84 -131 17 c-73 9 -136 19 -141 22 -4 3 -8 47 -9 97 -2
195 -20 247 -88 247 -70 0 -221 -119 -348 -274 -35 -44 -43 -48 -67 -42 -24 6
-27 10 -22 34 4 15 31 77 61 139 154 317 444 444 841 368z m829 -1721 c13 -8
28 -29 34 -46 24 -67 7 -114 -51 -144 -41 -21 -50 -11 -89 101 -30 86 -30 89
-13 103 23 16 84 9 119 -14z"/>
<path d="M700 1181 c0 -15 60 -61 121 -92 69 -34 79 -35 79 -10 0 14 -24 32
-84 65 -82 45 -116 56 -116 37z"/>
<path d="M1458 1094 c-122 -18 -168 -32 -168 -49 0 -20 40 -19 154 1 97 17
129 29 123 47 -5 16 -14 16 -109 1z"/>
<path d="M1030 986 c0 -22 19 -30 35 -16 22 18 18 30 -10 30 -15 0 -25 -6 -25
-14z"/>
</g>
</svg>
